<svg xmlns="http://www.w3.org/2000/svg" width="48" height="48">
  <path fill="#0ff" stroke-width=".1" stroke="#000" d="M0 0h48v48H0z"/>
  <path d="M24.48 32.254V4.094h16v-1.16H7.84v1.16h15.48v28.16H6.36v1.16h35.28v-1.16z" style="-inkscape-font-specification:'Source Han Sans CN Light'" font-weight="300" font-family="Source Han Sans CN"/>
  <path d="M21.616 29.66l-7.248-10.53 7.508-10.205-.975-.715-7.24 9.88L6.9 8.21l-1.008.683 7.02 10.205-7.735 10.53.976.715 7.47-10.173 7.02 10.173.977-.683zm13.38.715c3.283 0 6.208-1.495 7.833-4.062l-.75-.748c-1.43 2.503-3.87 3.705-7.09 3.705-4.49 0-8.06-3.802-8.06-8.417 0-4.583 3.67-11.538 8.28-11.538 2.83 0 4.48 1.235 5.43 2.34v.65h.87V8.99h-.88v1.105C39.02 8.86 37.17 8.21 35.41 8.21c-5.72 0-9.553 7.475-9.553 12.708 0 5.362 4.16 9.457 9.13 9.457z" style="-inkscape-font-specification:'Comic Neue Angular Light'" font-weight="300" font-size="32.5" font-family="Comic Neue Angular"/>
  <path d="M6.765 36.396v9c0 .236-.09.304-.326.315-.22.02-1.03.02-1.86-.01.12.21.26.57.31.78 1.03 0 1.72-.02 2.11-.13.37-.13.53-.37.53-.94v-9h-.77zm2.69 2.813c.977 1.6 1.877 3.7 2.16 5.01l.775-.33c-.28-1.34-1.238-3.39-2.24-4.96l-.696.27zm-5.638-.2c-.28 1.51-.9 3.44-1.923 4.62.202.09.517.27.697.4 1.03-1.25 1.69-3.26 2.05-4.88L3.82 39zm17.157 4.09v.85h-5.277v-.85h5.277zm-5.277 2.35v-.96h5.277v.95h-5.277zm-.765 1h.765v-.4h5.277v.35h.798v-3.9h-6.84v3.95zm4.275-8.01h-1.822v-.71h1.822v.71zm2.463.56v.89h-1.74V39h1.75zm0 2.29h-1.74v-.89h1.75v.89zm-6.71-.89h1.7v.89h-1.7v-.89zm4.25 0v.89h-1.82v-.89h1.827zm-1.82-.52V39h1.827v.89H17.39zM14.96 39h1.7v.89h-1.7V39zm8.2-1.27v-.63h-3.23v-.853h-.72v.856h-1.82v-.856h-.73v.86h-3.12v.63h3.118v.71h-2.43v3.42h8.2v-3.42H19.93v-.71h3.228zm5.66.486v-.71h-2.5c.18-.35.34-.71.468-1.07l-.676-.19c-.37 1.045-1 2.07-1.7 2.72.125.17.34.54.395.7.403-.393.785-.89 1.134-1.45h2.88zm-1.672 6.85v-2.6H28.8v-.67h-1.66v-1.6h1.382v-.69h-3.294v.687h1.193v1.59h-1.73v.67h1.74v2.44c0 .463-.3.71-.49.823.13.17.3.473.36.664.18-.18.49-.348 2.53-1.46-.03-.16-.1-.45-.13-.64l-1.54.774zm7.503-3.095v-.71H32.1c.056-.54.068-1.06.068-1.55v-.76h2.216v-.7h-2.216v-1.98h-.732v1.98H30.22c.103-.47.204-.97.283-1.47l-.71-.11c-.168 1.33-.505 2.646-1.034 3.51.16.09.48.28.6.37.26-.435.47-.99.66-1.594h1.4v.765c0 .483-.01 1-.06 1.55H29v.71h2.274c-.26 1.404-.935 2.88-2.724 3.947.18.135.418.38.53.54 1.564-1 2.33-2.284 2.723-3.59.483 1.587 1.26 2.87 2.44 3.567.125-.215.35-.47.518-.62-1.28-.664-2.11-2.104-2.53-3.85h2.41zm6.64.46c.63-.37 1.23-.84 1.78-1.39.48.52 1.06 1.01 1.71 1.4h-3.49zm.3 2.94v-2.29h2.94v2.29h-2.94zm-1.6-3.61h-1.43v-1.67h1.33v-.27c.18.13.42.33.53.44.38-.39.75-.86 1.09-1.38.28.54.65 1.11 1.09 1.65-.78.81-1.7 1.44-2.61 1.84v-.6zm-3.02-4.39h2.23v2.07h-2.23v-2.07zm7.29.68c-.29.73-.72 1.39-1.22 1.99-.49-.587-.87-1.195-1.17-1.78l.12-.213h2.273zm.46-.69l-.15.023H42.3c.136-.317.26-.654.372-.98l-.71-.18c-.43 1.37-1.17 2.64-2.07 3.5V36.7H36.3v3.387h1.573V44.7l-.92.213V41.19h-.65v3.858l-.585.135.14.72c1.16-.293 2.757-.675 4.287-1.046l-.08-.675-1.507.348v-2.092h1.226l-.08.034c.15.135.35.382.43.562.26-.112.51-.236.76-.36v3.78h.7v-.416h2.938v.383h.72v-3.71c.137.06.28.13.418.19.1-.18.314-.47.46-.61-1.023-.4-1.89-1.02-2.6-1.72.71-.83 1.295-1.83 1.655-2.99l-.46-.21z" style="-inkscape-font-specification:'Source Han Sans CN'" font-size="11.25" font-family="Source Han Sans CN"/>
</svg>
